<svg width="8" height="14" viewBox="0 0 8 14" fill="none" xmlns="http://www.w3.org/2000/svg">
<path d="M1.01446 1.45808C0.954315 1.39444 0.907295 1.31957 0.876084 1.23775C0.844874 1.15593 0.830084 1.06876 0.832561 0.981228C0.835037 0.893694 0.85473 0.807504 0.890516 0.72758C0.926302 0.647656 0.977479 0.575563 1.04113 0.515418C1.10477 0.455273 1.17965 0.408252 1.26146 0.377042C1.34328 0.345832 1.43045 0.331042 1.51798 0.333519C1.60552 0.335995 1.69171 0.355688 1.77163 0.391474C1.85156 0.42726 1.92365 0.478437 1.98379 0.542085L7.65046 6.54208C7.76749 6.66586 7.83269 6.82974 7.83269 7.00008C7.83269 7.17043 7.76749 7.33431 7.65046 7.45809L1.98379 13.4588C1.92405 13.5238 1.85197 13.5763 1.77175 13.6133C1.69153 13.6502 1.60477 13.6709 1.51651 13.674C1.42825 13.6771 1.34024 13.6627 1.2576 13.6315C1.17496 13.6004 1.09934 13.5531 1.03513 13.4925C0.970915 13.4318 0.919389 13.359 0.883545 13.2783C0.847701 13.1976 0.828253 13.1106 0.82633 13.0223C0.824407 12.934 0.840047 12.8462 0.872343 12.764C0.904639 12.6818 0.952947 12.6068 1.01446 12.5434L6.24913 7.00008L1.01446 1.45808Z" fill="#101828"/>
</svg>
