<svg width="8" height="15" viewBox="0 0 8 15" fill="none" xmlns="http://www.w3.org/2000/svg">
<path fill-rule="evenodd" clip-rule="evenodd" d="M7.12382 7.9274C7.22573 7.80847 7.28174 7.65702 7.28174 7.5004C7.28174 7.34378 7.22573 7.19233 7.12382 7.0734L1.87382 0.948399C1.81775 0.882902 1.74932 0.829091 1.67245 0.790039C1.59558 0.750987 1.51177 0.727458 1.42581 0.720795C1.33984 0.714132 1.25341 0.724466 1.17144 0.751208C1.08947 0.777949 1.01357 0.820576 0.948071 0.87665C0.882574 0.932724 0.828763 1.00115 0.789711 1.07802C0.750658 1.15489 0.727129 1.2387 0.720466 1.32466C0.713803 1.41063 0.724138 1.49706 0.750879 1.57903C0.777621 1.661 0.820246 1.7369 0.87632 1.8024L5.76144 7.5004L0.87807 13.1984C0.818655 13.2633 0.772892 13.3394 0.743502 13.4224C0.714112 13.5053 0.701695 13.5933 0.70699 13.6811C0.712285 13.7689 0.735182 13.8548 0.774322 13.9336C0.813462 14.0124 0.868044 14.0825 0.934824 14.1397C1.0016 14.197 1.07922 14.2403 1.16305 14.267C1.24689 14.2936 1.33523 14.3032 1.42283 14.295C1.51043 14.2869 1.59549 14.2612 1.67297 14.2195C1.75044 14.1778 1.81875 14.121 1.87382 14.0524L7.12382 7.9274Z" fill="currentColor"/>
</svg>
