<svg width="20" height="21" viewBox="0 0 20 21" fill="none" xmlns="http://www.w3.org/2000/svg">
<path d="M9.39405 3.57254C9.31887 3.49299 9.26009 3.3994 9.22108 3.29712C9.18207 3.19485 9.16358 3.08589 9.16668 2.97647C9.16977 2.86706 9.19439 2.75932 9.23912 2.65941C9.28385 2.55951 9.34783 2.46939 9.42738 2.39421C9.50694 2.31903 9.60053 2.26025 9.70281 2.22124C9.80508 2.18223 9.91404 2.16374 10.0235 2.16684C10.1329 2.16993 10.2406 2.19455 10.3405 2.23928C10.4404 2.28401 10.5305 2.34799 10.6057 2.42754L17.6891 9.92754C17.8353 10.0823 17.9168 10.2871 17.9168 10.5C17.9168 10.713 17.8353 10.9178 17.6891 11.0725L10.6057 18.5734C10.531 18.6547 10.4409 18.7203 10.3407 18.7665C10.2404 18.8127 10.1319 18.8385 10.0216 18.8424C9.91129 18.8463 9.80128 18.8283 9.69798 18.7894C9.59468 18.7504 9.50015 18.6913 9.41989 18.6155C9.33962 18.5397 9.27521 18.4487 9.23041 18.3478C9.1856 18.2469 9.16129 18.1381 9.15889 18.0278C9.15649 17.9174 9.17604 17.8076 9.21641 17.7049C9.25678 17.6021 9.31716 17.5084 9.39405 17.4292L15.9374 10.5L9.39405 3.57254Z" fill="#555555"/>
</svg>
