<svg width="16" height="10" viewBox="0 0 16 10" fill="none" xmlns="http://www.w3.org/2000/svg">
<path d="M0.5 9.41713C0.5 9.70441 0.691524 9.90157 0.984443 9.90157H14.8756C15.1685 9.90157 15.36 9.70441 15.36 9.41713V0.984443C15.36 0.691524 15.1685 0.5 14.8756 0.5H0.984443C0.691524 0.5 0.5 0.691524 0.5 0.984443V9.41713ZM1.62098 8.61723V1.78434C1.62098 1.67168 1.67168 1.62098 1.78434 1.62098H14.0813C14.194 1.62098 14.239 1.67168 14.239 1.78434V8.61723C14.239 8.72989 14.194 8.77496 14.0813 8.77496H1.78434C1.67168 8.77496 1.62098 8.72989 1.62098 8.61723ZM2.17302 7.93C2.17302 8.12152 2.28005 8.22855 2.46594 8.22855H13.3997C13.5856 8.22855 13.6926 8.12152 13.6926 7.93V2.47157C13.6926 2.28005 13.5856 2.17302 13.3997 2.17302H2.46594C2.28005 2.17302 2.17302 2.28005 2.17302 2.47157V7.93ZM2.77012 7.51315V2.88842C2.77012 2.80955 2.80955 2.77012 2.88842 2.77012H6.6175C6.14432 3.294 5.84014 4.13332 5.84014 5.19234C5.84014 6.25698 6.14432 7.10194 6.62313 7.63145H2.88842C2.80955 7.63145 2.77012 7.58638 2.77012 7.51315ZM10.0255 5.19234C10.0255 4.13332 9.72131 3.294 9.23124 2.77012H12.9772C13.0504 2.77012 13.0955 2.80955 13.0955 2.88842V7.51315C13.0955 7.58638 13.0504 7.63145 12.9772 7.63145H9.2256C9.71568 7.10194 10.0255 6.25698 10.0255 5.19234ZM7.90747 7.51879C7.15827 7.51879 6.52174 6.62313 6.52174 5.19234C6.52174 3.77281 7.15827 2.88278 7.90747 2.88278C8.69046 2.88278 9.3439 3.77281 9.3439 5.19234C9.3439 6.62313 8.69046 7.51879 7.90747 7.51879Z" fill="#2A907F" fill-opacity="0.9"/>
</svg>
