<svg width="18" height="18" viewBox="0 0 18 18" fill="none" xmlns="http://www.w3.org/2000/svg">
<g clip-path="url(#clip0_5677_2695)">
<path d="M6.73818 1.41016C6.73818 1.41016 6.7415 1.41016 6.74813 1.41016C6.75477 1.41016 6.75809 1.41016 6.75809 1.41016H10.4607C10.4607 1.41016 10.464 1.41016 10.4706 1.41016C10.4773 1.41016 10.4806 1.41016 10.4806 1.41016C10.5204 1.41016 10.5602 1.41016 10.6 1.41016C10.6398 1.41016 10.673 1.41016 10.6995 1.41016C11.164 1.43649 11.5821 1.58135 11.9536 1.84472C12.3252 2.1081 12.5973 2.45049 12.7698 2.87188C12.7831 2.91139 12.7963 2.9476 12.8096 2.98053C12.8229 3.01345 12.8362 3.04966 12.8494 3.08917V3.10892C12.876 3.1616 12.8892 3.19781 12.8892 3.21756C12.8892 3.23732 12.8959 3.24719 12.9091 3.24719C12.949 3.36571 13.0219 3.46448 13.1281 3.54349C13.2343 3.6225 13.3537 3.66201 13.4864 3.66201C13.4997 3.66201 13.5163 3.66201 13.5362 3.66201C13.5561 3.66201 13.5926 3.66201 13.6457 3.66201C13.6589 3.66201 13.6689 3.66201 13.6755 3.66201C13.6822 3.66201 13.6855 3.66201 13.6855 3.66201C13.8049 3.66201 13.9111 3.66201 14.004 3.66201C14.0969 3.66201 14.1831 3.66859 14.2628 3.68176C15.0059 3.7476 15.6429 4.0439 16.1738 4.57065C16.7046 5.0974 17.0098 5.7295 17.0895 6.46695C17.0895 6.54596 17.0928 6.62826 17.0994 6.71386C17.1061 6.79946 17.1094 6.90151 17.1094 7.02003C17.1094 7.02003 17.1094 7.02332 17.1094 7.02991C17.1094 7.03649 17.1094 7.04637 17.1094 7.05954V12.9855C17.1094 13.2883 17.1061 13.5649 17.0994 13.8151C17.0928 14.0653 17.0828 14.2958 17.0696 14.5065C17.0563 14.7172 17.0264 14.9246 16.98 15.1287C16.9335 15.3328 16.8572 15.5336 16.7511 15.7311C16.6051 16.0209 16.416 16.2809 16.1837 16.5114C15.9515 16.7418 15.6828 16.9295 15.3775 17.0744C15.1917 17.1797 14.996 17.2521 14.7903 17.2916C14.5846 17.3311 14.3756 17.3641 14.1632 17.3904C13.9509 17.4036 13.7153 17.4102 13.4566 17.4102C13.1978 17.4102 12.9158 17.4102 12.6105 17.4102H4.6082C4.30297 17.4102 4.02097 17.4102 3.76219 17.4102C3.5034 17.4102 3.26784 17.4036 3.05551 17.3904C2.84318 17.3641 2.63416 17.3311 2.42846 17.2916C2.22276 17.2521 2.02702 17.1797 1.84123 17.0744C1.53599 16.9295 1.26726 16.7418 1.03502 16.5114C0.802779 16.2809 0.613669 16.0209 0.467689 15.7311C0.361522 15.5336 0.285214 15.3328 0.238766 15.1287C0.192318 14.9246 0.162459 14.7172 0.149188 14.5065C0.135917 14.3089 0.125964 14.0818 0.119328 13.825C0.112693 13.5682 0.109375 13.2883 0.109375 12.9855V7.05954C0.109375 7.04637 0.109375 7.03649 0.109375 7.02991C0.109375 7.02332 0.109375 7.02003 0.109375 7.02003C0.109375 6.90151 0.112693 6.79946 0.119328 6.71386C0.125964 6.62826 0.129281 6.54596 0.129281 6.46695C0.208907 5.7295 0.514137 5.0974 1.04497 4.57065C1.57581 4.0439 2.21281 3.7476 2.95598 3.68176C3.0356 3.66859 3.12187 3.66201 3.21476 3.66201C3.30766 3.66201 3.41382 3.66201 3.53326 3.66201C3.53326 3.66201 3.53658 3.66201 3.54322 3.66201C3.54985 3.66201 3.5598 3.66201 3.57308 3.66201C3.62616 3.66201 3.66265 3.66201 3.68256 3.66201C3.70247 3.66201 3.71905 3.66201 3.73233 3.66201C3.86503 3.66201 3.98447 3.6225 4.09064 3.54349C4.19681 3.46448 4.2698 3.36571 4.30961 3.24719C4.32288 3.24719 4.32952 3.23732 4.32952 3.21756C4.32952 3.19781 4.34279 3.1616 4.36933 3.10892C4.36933 3.10892 4.36933 3.10563 4.36933 3.09904C4.36933 3.09246 4.36933 3.08917 4.36933 3.08917C4.3826 3.04966 4.39587 3.01345 4.40914 2.98053C4.42241 2.9476 4.43568 2.91139 4.44895 2.87188C4.62147 2.45049 4.89353 2.1081 5.26511 1.84472C5.6367 1.58135 6.05473 1.43649 6.51921 1.41016C6.54575 1.41016 6.57893 1.41016 6.61874 1.41016C6.65856 1.41016 6.69837 1.41016 6.73818 1.41016ZM6.75809 3.08917C6.705 3.08917 6.66851 3.08917 6.6486 3.08917C6.6287 3.08917 6.61874 3.08917 6.61874 3.08917C6.48603 3.10234 6.3666 3.14513 6.26043 3.21756C6.15426 3.28999 6.07464 3.38546 6.02155 3.50398C6.02155 3.51715 6.01824 3.53032 6.0116 3.54349C6.00496 3.55666 5.99501 3.58958 5.98174 3.64225C5.98174 3.64225 5.97842 3.64555 5.97179 3.65213C5.96515 3.65872 5.96183 3.66201 5.96183 3.66201C5.94856 3.70151 5.93529 3.73773 5.92202 3.77065C5.90875 3.80357 5.89548 3.83979 5.88221 3.87929C5.72296 4.30069 5.45422 4.64308 5.076 4.90645C4.69778 5.16983 4.28307 5.31468 3.83186 5.34102C3.79204 5.34102 3.75223 5.34431 3.71242 5.3509C3.67261 5.35748 3.63279 5.36077 3.59298 5.36077C3.59298 5.36077 3.58966 5.36077 3.58303 5.36077C3.57639 5.36077 3.57308 5.36077 3.57308 5.36077C3.41382 5.36077 3.30434 5.36077 3.24462 5.36077C3.1849 5.36077 3.14177 5.36077 3.11523 5.36077C2.77019 5.38711 2.47823 5.52209 2.23935 5.76571C2.00048 6.00933 1.86113 6.29575 1.82132 6.62497C1.82132 6.66448 1.82132 6.71057 1.82132 6.76324C1.82132 6.81592 1.82132 6.91468 1.82132 7.05954V12.946C1.82132 13.2752 1.82132 13.5517 1.82132 13.7756C1.82132 13.9995 1.82795 14.197 1.84123 14.3682C1.8545 14.5262 1.8744 14.6513 1.90094 14.7435C1.92749 14.8357 1.95403 14.9081 1.98057 14.9608C2.04692 15.0925 2.13318 15.211 2.23935 15.3163C2.34552 15.4217 2.46496 15.5073 2.59767 15.5731C2.65075 15.5995 2.72374 15.6258 2.81663 15.6521C2.90953 15.6785 3.0356 15.6982 3.19486 15.7114C3.36738 15.7246 3.56976 15.7311 3.802 15.7311C4.03424 15.7311 4.30961 15.7311 4.62811 15.7311H12.5906C12.9091 15.7311 13.1845 15.7311 13.4168 15.7311C13.649 15.7311 13.8514 15.7246 14.0239 15.7114C14.1831 15.6982 14.3092 15.6785 14.4021 15.6521C14.495 15.6258 14.568 15.5995 14.6211 15.5731C14.7538 15.5073 14.8732 15.4217 14.9794 15.3163C15.0856 15.211 15.1718 15.0925 15.2382 14.9608C15.2647 14.9081 15.2913 14.8357 15.3178 14.7435C15.3443 14.6513 15.3643 14.5262 15.3775 14.3682C15.3908 14.197 15.3974 13.9995 15.3974 13.7756C15.3974 13.5517 15.3974 13.2752 15.3974 12.946V7.05954C15.3974 6.91468 15.3974 6.81592 15.3974 6.76324C15.3974 6.71057 15.3974 6.66448 15.3974 6.62497C15.3576 6.29575 15.2183 6.00933 14.9794 5.76571C14.7405 5.52209 14.4486 5.38711 14.1035 5.36077C14.077 5.36077 14.0338 5.36077 13.9741 5.36077C13.9144 5.36077 13.8049 5.36077 13.6457 5.36077H13.6258C13.586 5.36077 13.5461 5.35748 13.5063 5.3509C13.4665 5.34431 13.4267 5.34102 13.3869 5.34102C12.9357 5.31468 12.521 5.16983 12.1427 4.90645C11.7645 4.64308 11.4958 4.30069 11.3365 3.87929C11.3233 3.83979 11.31 3.80357 11.2967 3.77065C11.2835 3.73773 11.2702 3.70151 11.2569 3.66201L11.237 3.64225C11.2237 3.58958 11.2138 3.55666 11.2072 3.54349C11.2005 3.53032 11.1972 3.51715 11.1972 3.50398C11.1441 3.38546 11.0645 3.28999 10.9583 3.21756C10.8522 3.14513 10.7327 3.10234 10.6 3.08917C10.6 3.08917 10.5901 3.08917 10.5701 3.08917C10.5502 3.08917 10.5137 3.08917 10.4607 3.08917H6.75809ZM8.60938 7.98793C7.99891 7.98793 7.47803 8.20193 7.04673 8.62991C6.61543 9.05789 6.39977 9.56818 6.39977 10.1608C6.39977 10.7665 6.61543 11.2801 7.04673 11.7015C7.47803 12.1229 7.99891 12.3336 8.60938 12.3336C9.21984 12.3336 9.74072 12.1229 10.172 11.7015C10.6033 11.2801 10.819 10.7665 10.819 10.1608C10.819 9.56818 10.6033 9.05789 10.172 8.62991C9.74072 8.20193 9.21984 7.98793 8.60938 7.98793ZM4.70774 10.1608C4.70774 9.63402 4.80727 9.13361 5.00633 8.65954C5.21866 8.18546 5.50067 7.77394 5.85235 7.42497C6.20403 7.076 6.61874 6.80275 7.09649 6.60522C7.56098 6.40769 8.06527 6.30892 8.60938 6.30892C9.15348 6.30892 9.65777 6.40769 10.1223 6.60522C10.6 6.80275 11.0147 7.076 11.3664 7.42497C11.7181 7.77394 12.0001 8.18546 12.2124 8.65954C12.4115 9.13361 12.511 9.63402 12.511 10.1608C12.511 10.7007 12.4115 11.2011 12.2124 11.662C12.0001 12.1361 11.7181 12.5476 11.3664 12.8966C11.0147 13.2455 10.6 13.5188 10.1223 13.7163C9.65777 13.927 9.15348 14.0324 8.60938 14.0324C8.06527 14.0324 7.56098 13.927 7.09649 13.7163C6.61874 13.5188 6.20403 13.2455 5.85235 12.8966C5.50067 12.5476 5.21866 12.1361 5.00633 11.662C4.80727 11.2011 4.70774 10.7007 4.70774 10.1608Z" fill="#101828"/>
</g>
<defs>
<clipPath id="clip0_5677_2695">
<rect width="18" height="17" fill="white" transform="matrix(1 0 0 -1 0 17.5)"/>
</clipPath>
</defs>
</svg>
