<svg width="16" height="16" viewBox="0 0 16 16" fill="none" xmlns="http://www.w3.org/2000/svg">
<path d="M6.67188 2.67188C5.93229 2.67188 5.23958 2.80729 4.59375 3.07812C3.94792 3.35938 3.38281 3.74219 2.89844 4.22656C2.41406 4.71094 2.03125 5.27604 1.75 5.92188C1.47917 6.56771 1.34375 7.26042 1.34375 8C1.34375 8.73958 1.47917 9.43229 1.75 10.0781C2.03125 10.724 2.41406 11.2891 2.89844 11.7734C3.38281 12.2578 3.94792 12.6406 4.59375 12.9219C5.23958 13.1927 5.93229 13.3281 6.67188 13.3281C7.41146 13.3281 8.10417 13.1927 8.75 12.9219C9.39583 12.6406 9.96094 12.2578 10.4453 11.7734C10.9297 11.2891 11.3125 10.724 11.5938 10.0781C11.8646 9.43229 12 8.73958 12 8C12 7.26042 11.8646 6.56771 11.5938 5.92188C11.3125 5.27604 10.9297 4.71094 10.4453 4.22656C9.96094 3.74219 9.39583 3.35938 8.75 3.07812C8.10417 2.80729 7.41146 2.67188 6.67188 2.67188ZM0 8C0 7.08333 0.177083 6.21875 0.53125 5.40625C0.875 4.59375 1.34896 3.88542 1.95312 3.28125C2.55729 2.67708 3.26562 2.20312 4.07812 1.85938C4.89062 1.50521 5.75521 1.32812 6.67188 1.32812C7.58854 1.32812 8.45312 1.50521 9.26562 1.85938C10.0781 2.20312 10.7865 2.67708 11.3906 3.28125C11.9948 3.88542 12.4688 4.59375 12.8125 5.40625C13.1667 6.21875 13.3438 7.08333 13.3438 8C13.3438 8.91667 13.1667 9.78125 12.8125 10.5938C12.4688 11.4062 11.9948 12.1146 11.3906 12.7188C10.7865 13.3229 10.0781 13.7969 9.26562 14.1406C8.45312 14.4948 7.58854 14.6719 6.67188 14.6719C5.75521 14.6719 4.89062 14.4948 4.07812 14.1406C3.26562 13.7969 2.55729 13.3229 1.95312 12.7188C1.34896 12.1146 0.875 11.4062 0.53125 10.5938C0.177083 9.78125 0 8.91667 0 8ZM6.67188 3.73438C6.85938 3.73438 7.01823 3.79948 7.14844 3.92969C7.27865 4.0599 7.34375 4.21875 7.34375 4.40625V7.59375L9.375 8.60938C9.53125 8.69271 9.64062 8.82031 9.70312 8.99219C9.76562 9.16406 9.75521 9.33333 9.67188 9.5C9.58854 9.66667 9.45833 9.77865 9.28125 9.83594C9.10417 9.89323 8.9375 9.88021 8.78125 9.79688L6.375 8.59375C6.26042 8.54167 6.16927 8.46094 6.10156 8.35156C6.03385 8.24219 6 8.125 6 8V4.40625C6 4.21875 6.0651 4.0599 6.19531 3.92969C6.32552 3.79948 6.48438 3.73438 6.67188 3.73438Z" fill="#757982"/>
</svg>
