<svg width="14" height="15" viewBox="0 0 14 15" fill="none" xmlns="http://www.w3.org/2000/svg">
<path d="M7 14C5.71442 14 4.45772 13.6188 3.3888 12.9046C2.31988 12.1903 1.48676 11.1752 0.994786 9.98744C0.502816 8.79973 0.374095 7.49279 0.624899 6.23192C0.875703 4.97104 1.49477 3.81285 2.40381 2.90381C3.31285 1.99477 4.47104 1.3757 5.73192 1.1249C6.99279 0.874095 8.29973 1.00282 9.48744 1.49479C10.6752 1.98676 11.6903 2.81988 12.4046 3.8888C13.1188 4.95772 13.5 6.21442 13.5 7.5C13.5021 9.36203 12.7857 11.1531 11.5 12.5" stroke="#757982" stroke-linecap="round" stroke-linejoin="round"/>
<path d="M13.5 12L11.5 12.5L11 10.5M9 9.5L7 7H4" stroke="#757982" stroke-linecap="round" stroke-linejoin="round"/>
</svg>
