<svg width="16" height="12" viewBox="0 0 16 12" fill="none" xmlns="http://www.w3.org/2000/svg">
<path d="M2.63184 11.2019H13.3608C14.7231 11.2019 15.4262 10.4925 15.4262 9.14899V2.36886C15.4262 1.02539 14.7231 0.322266 13.3608 0.322266H2.63184C1.27581 0.322266 0.566406 1.02539 0.566406 2.36886V9.14899C0.566406 10.4987 1.27581 11.2019 2.63184 11.2019ZM1.81571 2.48186C1.81571 1.87918 2.13588 1.57785 2.71345 1.57785H13.2792C13.8567 1.57785 14.1769 1.87918 14.1769 2.48186V2.93387H1.81571V2.48186ZM2.71345 9.94629C2.13588 9.94629 1.81571 9.64495 1.81571 9.04227V4.40918H14.1769V9.04227C14.1769 9.64495 13.8567 9.94629 13.2792 9.94629H2.71345ZM3.56724 8.80999H5.10533C5.47572 8.80999 5.72684 8.56515 5.72684 8.21359V7.0459C5.72684 6.69433 5.47572 6.4495 5.10533 6.4495H3.56724C3.20312 6.4495 2.95201 6.69433 2.95201 7.0459V8.21359C2.95201 8.56515 3.20312 8.80999 3.56724 8.80999Z" fill="#2A907F" fill-opacity="0.9"/>
</svg>
