<svg width="28" height="28" viewBox="0 0 28 28" fill="none" xmlns="http://www.w3.org/2000/svg">
<g clip-path="url(#clip0_393_15599)">
<path d="M11.55 4.94675C12.353 4.75877 13.1752 4.66481 14 4.66675C22.1667 4.66675 26.8333 14.0001 26.8333 14.0001C26.1251 15.325 25.2806 16.5723 24.3133 17.7217M16.4733 16.4734C16.1529 16.8173 15.7665 17.0931 15.3372 17.2844C14.9078 17.4757 14.4444 17.5786 13.9744 17.5868C13.5045 17.5951 13.0377 17.5087 12.6019 17.3327C12.1661 17.1566 11.7702 16.8946 11.4378 16.5623C11.1055 16.2299 10.8434 15.834 10.6674 15.3982C10.4914 14.9624 10.4049 14.4956 10.4132 14.0256C10.4215 13.5557 10.5244 13.0922 10.7157 12.6629C10.907 12.2336 11.1828 11.8472 11.5267 11.5267M1.16666 1.16675L26.8333 26.8334M20.93 20.9301C18.9357 22.4503 16.5073 23.2924 14 23.3334C5.83332 23.3334 1.16666 14.0001 1.16666 14.0001C2.61786 11.2956 4.63065 8.93279 7.06999 7.07008L20.93 20.9301Z" stroke="#101828" stroke-linecap="round" stroke-linejoin="round"/>
</g>
<defs>
<clipPath id="clip0_393_15599">
<rect width="28" height="28" fill="white"/>
</clipPath>
</defs>
</svg>
