<svg width="32" height="32" viewBox="0 0 32 32" fill="none" xmlns="http://www.w3.org/2000/svg">
<path d="M32 4C32 1.79086 30.2091 0 28 0H4C1.79086 0 0 1.79086 0 4V28C0 30.2091 1.79086 32 4 32H28C30.2091 32 32 30.2091 32 28V4Z" fill="#231E1B"/>
<path fill-rule="evenodd" clip-rule="evenodd" d="M15.9755 8.19141C11.5719 8.19141 8 11.7633 8 16.1669C8 19.6899 10.2997 22.6746 13.4312 23.751C13.8226 23.8 13.9694 23.5553 13.9694 23.3596C13.9694 23.1639 13.9694 22.6746 13.9694 21.9896C11.7676 22.4789 11.2783 20.9131 11.2783 20.9131C10.9358 19.9835 10.3976 19.7388 10.3976 19.7388C9.66361 19.2495 10.4465 19.2495 10.4465 19.2495C11.2294 19.2984 11.6697 20.0813 11.6697 20.0813C12.4037 21.3046 13.5291 20.962 13.9694 20.7663C14.0183 20.2281 14.263 19.8856 14.4587 19.6899C12.6972 19.4942 10.8379 18.8091 10.8379 15.7266C10.8379 14.8458 11.1315 14.1608 11.6697 13.5737C11.6208 13.4269 11.3272 12.5951 11.7676 11.5186C11.7676 11.5186 12.4526 11.3229 13.9694 12.3504C14.6055 12.1547 15.2905 12.1058 15.9755 12.1058C16.6606 12.1058 17.3456 12.2036 17.9817 12.3504C19.4985 11.3229 20.1835 11.5186 20.1835 11.5186C20.6239 12.5951 20.3303 13.4269 20.2813 13.6226C20.7706 14.1608 21.1131 14.8948 21.1131 15.7755C21.1131 18.8581 19.2538 19.4942 17.4924 19.6899C17.7859 19.9345 18.0306 20.4238 18.0306 21.1578C18.0306 22.2342 18.0306 23.066 18.0306 23.3596C18.0306 23.5553 18.1774 23.8 18.5688 23.751C21.7492 22.6746 24 19.6899 24 16.1669C23.9511 11.7633 20.3792 8.19141 15.9755 8.19141Z" fill="#FFFEFE"/>
</svg>
