<svg width="45" height="44" viewBox="0 0 45 44" fill="none" xmlns="http://www.w3.org/2000/svg">
<path d="M24 4C20.2422 4 16.5687 5.17298 13.4442 7.37061C10.3196 9.56823 7.88436 12.6918 6.4463 16.3463C5.00823 20.0009 4.63197 24.0222 5.36509 27.9018C6.09821 31.7814 7.90778 35.3451 10.565 38.1421C13.2222 40.9392 16.6077 42.844 20.2933 43.6157C23.9789 44.3874 27.7992 43.9913 31.271 42.4776C34.7428 40.9638 37.7102 38.4004 39.7979 35.1114C41.8857 31.8224 43 27.9556 43 24C42.9941 18.6976 40.9904 13.6141 37.4285 9.86474C33.8666 6.11536 29.0373 4.00623 24 4ZM39.1944 16.549H31.7099C30.8954 12.9929 29.4099 9.64552 27.3418 6.70588C29.9093 7.26128 32.318 8.44047 34.3759 10.1494C36.4337 11.8584 38.0837 14.0498 39.1944 16.549ZM40.7647 24C40.766 25.727 40.5256 27.4448 40.0513 29.098H32.17C32.7016 25.7224 32.7016 22.2776 32.17 18.902H40.0513C40.5256 20.5552 40.766 22.273 40.7647 24ZM24 41.647C23.9536 41.6473 23.9076 41.6371 23.8652 41.6172C23.8228 41.5972 23.7849 41.568 23.7541 41.5314C21.3549 38.8118 19.5928 35.3196 18.598 31.451H29.402C28.4073 35.3196 26.6451 38.8118 24.2459 41.5314C24.2151 41.568 24.1772 41.5972 24.1348 41.6172C24.0924 41.6371 24.0465 41.6473 24 41.647ZM18.097 29.098C17.5233 25.7262 17.5233 22.2738 18.097 18.902H29.903C30.4768 22.2738 30.4768 25.7262 29.903 29.098H18.097ZM7.2353 24C7.23405 22.273 7.47444 20.5552 7.94873 18.902H15.83C15.2985 22.2776 15.2985 25.7224 15.83 29.098H7.94873C7.47444 27.4448 7.23405 25.727 7.2353 24ZM24 6.35294C24.0465 6.35267 24.0924 6.36285 24.1348 6.3828C24.1772 6.40276 24.2151 6.43202 24.2459 6.46863C26.6451 9.18823 28.4073 12.6804 29.402 16.549H18.598C19.5928 12.6804 21.3549 9.18823 23.7541 6.46863C23.7849 6.43202 23.8228 6.40276 23.8652 6.3828C23.9076 6.36285 23.9536 6.35267 24 6.35294ZM20.6582 6.70588C18.5901 9.64552 17.1046 12.9929 16.2901 16.549H8.8056C9.91626 14.0498 11.5663 11.8584 13.6242 10.1494C15.682 8.44047 18.0907 7.26128 20.6582 6.70588ZM8.8056 31.451H16.2901C17.1046 35.0071 18.5901 38.3545 20.6582 41.2941C18.0907 40.7387 15.682 39.5595 13.6242 37.8506C11.5663 36.1416 9.91626 33.9502 8.8056 31.451ZM27.3418 41.2941C29.4099 38.3545 30.8954 35.0071 31.7099 31.451H39.1944C38.0837 33.9502 36.4337 36.1416 34.3759 37.8506C32.318 39.5595 29.9093 40.7387 27.3418 41.2941Z" fill="#2A907F"/>
</svg>
