<svg width="28" height="28" viewBox="0 0 28 28" fill="none" xmlns="http://www.w3.org/2000/svg">
<path d="M3.89964 9.07419C4.16348 8.43723 4.5502 7.85847 5.03771 7.37096C5.52522 6.88345 6.10398 6.49673 6.74094 6.23289C7.37791 5.96905 8.0606 5.83325 8.75005 5.83325C9.43949 5.83325 10.1222 5.96905 10.7591 6.23289C11.3961 6.49673 11.9749 6.88345 12.4624 7.37096L14 8.90863L15.5377 7.37096C16.5223 6.38639 17.8577 5.83327 19.25 5.83327C20.6424 5.83327 21.9778 6.38639 22.9624 7.37096C23.947 8.35554 24.5001 9.6909 24.5001 11.0833C24.5001 12.4757 23.947 13.8111 22.9624 14.7956L14 23.758L5.03771 14.7956C4.5502 14.3081 4.16348 13.7294 3.89964 13.0924C3.6358 12.4554 3.5 11.7727 3.5 11.0833C3.5 10.3939 3.6358 9.71116 3.89964 9.07419Z" stroke="#101828" stroke-width="2" stroke-linecap="round" stroke-linejoin="round"/>
</svg>
