<svg width="28" height="29" viewBox="0 0 28 29" fill="none" xmlns="http://www.w3.org/2000/svg">
<path d="M3.89964 9.57444C4.16348 8.93747 4.5502 8.35872 5.03771 7.87121C5.52522 7.38369 6.10398 6.99698 6.74094 6.73313C7.37791 6.46929 8.0606 6.3335 8.75005 6.3335C9.43949 6.3335 10.1222 6.46929 10.7591 6.73313C11.3961 6.99698 11.9749 7.38369 12.4624 7.87121L14 9.40888L15.5377 7.87121C16.5223 6.88664 17.8577 6.33351 19.25 6.33351C20.6424 6.33351 21.9778 6.88664 22.9624 7.87121C23.947 8.85578 24.5001 10.1911 24.5001 11.5835C24.5001 12.9759 23.947 14.3113 22.9624 15.2959L14 24.2582L5.03771 15.2959C4.5502 14.8084 4.16348 14.2296 3.89964 13.5926C3.6358 12.9557 3.5 12.273 3.5 11.5835C3.5 10.8941 3.6358 10.2114 3.89964 9.57444Z" stroke="#FFFEFE" stroke-width="2" stroke-linecap="round" stroke-linejoin="round"/>
</svg>
