<svg width="24" height="27" viewBox="0 0 24 27" fill="none" xmlns="http://www.w3.org/2000/svg">
<path d="M8 24.3332C8.55228 24.3332 9 23.8481 9 23.2498C9 22.6515 8.55228 22.1665 8 22.1665C7.44772 22.1665 7 22.6515 7 23.2498C7 23.8481 7.44772 24.3332 8 24.3332Z" stroke="currentColor" stroke-width="2" stroke-linecap="round" stroke-linejoin="round"/>
<path d="M19 24.3332C19.5523 24.3332 20 23.8481 20 23.2498C20 22.6515 19.5523 22.1665 19 22.1665C18.4477 22.1665 18 22.6515 18 23.2498C18 23.8481 18.4477 24.3332 19 24.3332Z" stroke="currentColor" stroke-width="2" stroke-linecap="round" stroke-linejoin="round"/>
<path d="M2.0498 2.7207H4.0498L6.7098 16.1757C6.80738 16.6685 7.06048 17.109 7.42552 17.4214C7.79056 17.7338 8.24471 17.8986 8.7098 17.8874H18.4898C18.945 17.8866 19.3863 17.7176 19.7408 17.4084C20.0954 17.0991 20.3419 16.6681 20.4398 16.1865L22.0898 8.13737H5.1198" stroke="currentColor" stroke-width="2" stroke-linecap="round" stroke-linejoin="round"/>
</svg>
