<svg width="16" height="16" viewBox="0 0 16 16" fill="none" xmlns="http://www.w3.org/2000/svg">
<path d="M5.67188 1.34375C5.06771 1.34375 4.5 1.45312 3.96875 1.67188C3.44792 1.89062 2.99219 2.1875 2.60156 2.5625C2.21094 2.9375 1.90104 3.375 1.67188 3.875C1.45312 4.375 1.34375 4.90625 1.34375 5.46875C1.34375 6.02083 1.46615 6.5651 1.71094 7.10156C1.95573 7.63802 2.30208 8.1875 2.75 8.75C3.13542 9.21875 3.5625 9.6875 4.03125 10.1562C4.5 10.625 4.99479 11.1094 5.51562 11.6094C5.54688 11.6302 5.57552 11.6536 5.60156 11.6797C5.6276 11.7057 5.65104 11.7292 5.67188 11.75C5.69271 11.7292 5.71615 11.7057 5.74219 11.6797C5.76823 11.6536 5.79688 11.6302 5.82812 11.6094C6.34896 11.1094 6.84375 10.625 7.3125 10.1562C7.78125 9.6875 8.20833 9.21875 8.59375 8.75C9.04167 8.1875 9.38802 7.63802 9.63281 7.10156C9.8776 6.5651 10 6.02083 10 5.46875C10 4.90625 9.89062 4.375 9.67188 3.875C9.44271 3.375 9.13281 2.9375 8.74219 2.5625C8.35156 2.1875 7.89583 1.89062 7.375 1.67188C6.84375 1.45312 6.27604 1.34375 5.67188 1.34375ZM0 5.46875C0 4.70833 0.151042 3.99479 0.453125 3.32812C0.755208 2.67188 1.16406 2.09635 1.67969 1.60156C2.19531 1.10677 2.79688 0.71875 3.48438 0.4375C4.17188 0.145833 4.90104 0 5.67188 0C6.44271 0 7.17188 0.145833 7.85938 0.4375C8.54688 0.71875 9.14844 1.10677 9.66406 1.60156C10.1797 2.09635 10.5885 2.67188 10.8906 3.32812C11.1927 3.99479 11.3438 4.70833 11.3438 5.46875C11.3438 6.23958 11.1797 6.96615 10.8516 7.64844C10.5234 8.33073 10.1146 8.97396 9.625 9.57812C9.21875 10.0885 8.76302 10.5938 8.25781 11.0938C7.7526 11.5938 7.23958 12.0938 6.71875 12.5938C6.625 12.6875 6.52865 12.7812 6.42969 12.875C6.33073 12.9688 6.23438 13.0625 6.14062 13.1562C6.00521 13.2812 5.84896 13.3438 5.67188 13.3438C5.49479 13.3438 5.33854 13.2812 5.20312 13.1562C5.10938 13.0625 5.01302 12.9688 4.91406 12.875C4.8151 12.7812 4.71875 12.6875 4.625 12.5938C4.10417 12.0938 3.59115 11.5938 3.08594 11.0938C2.58073 10.5938 2.125 10.0885 1.71875 9.57812C1.22917 8.97396 0.820312 8.33073 0.492188 7.64844C0.164062 6.96615 0 6.23958 0 5.46875ZM5.67188 4.34375C5.32812 4.34375 5.04167 4.45573 4.8125 4.67969C4.58333 4.90365 4.46875 5.16667 4.46875 5.46875C4.46875 5.77083 4.58333 6.03646 4.8125 6.26562C5.04167 6.49479 5.32812 6.60938 5.67188 6.60938C6.01562 6.60938 6.30208 6.49479 6.53125 6.26562C6.76042 6.03646 6.875 5.77083 6.875 5.46875C6.875 5.16667 6.76042 4.90365 6.53125 4.67969C6.30208 4.45573 6.01562 4.34375 5.67188 4.34375ZM3.125 5.46875C3.125 4.78125 3.3776 4.19792 3.88281 3.71875C4.38802 3.23958 4.98438 3 5.67188 3C6.35938 3 6.95573 3.23958 7.46094 3.71875C7.96615 4.19792 8.21875 4.78125 8.21875 5.46875C8.21875 6.16667 7.96615 6.7526 7.46094 7.22656C6.95573 7.70052 6.35938 7.9375 5.67188 7.9375C4.98438 7.9375 4.38802 7.70052 3.88281 7.22656C3.3776 6.7526 3.125 6.16667 3.125 5.46875Z" fill="#101828"/>
</svg>
