<svg width="16" height="19" viewBox="0 0 16 19" fill="none" xmlns="http://www.w3.org/2000/svg">
<path d="M14.75 8C14.75 13.25 8 17.75 8 17.75C8 17.75 1.25 13.25 1.25 8C1.25 6.20979 1.96116 4.4929 3.22703 3.22703C4.4929 1.96116 6.20979 1.25 8 1.25C9.79021 1.25 11.5071 1.96116 12.773 3.22703C14.0388 4.4929 14.75 6.20979 14.75 8Z" stroke="currentColor" stroke-width="1.5" stroke-linecap="round" stroke-linejoin="round"/>
<path d="M8 10.25C9.24264 10.25 10.25 9.24264 10.25 8C10.25 6.75736 9.24264 5.75 8 5.75C6.75736 5.75 5.75 6.75736 5.75 8C5.75 9.24264 6.75736 10.25 8 10.25Z" stroke="currentColor" stroke-width="1.5" stroke-linecap="round" stroke-linejoin="round"/>
</svg>
