<svg width="142" height="48" viewBox="0 0 142 48" fill="none" xmlns="http://www.w3.org/2000/svg">
<path d="M5.65255 11.115L3.47814 48H0L3.37135 0L14.9355 18.6471L26.2862 0L29.8711 48H26.393L24.012 11.115L14.9355 25.1173L5.65255 11.115Z" fill="#101828"/>
<path d="M10.4838 33.2554C11.9604 33.2554 13.1575 31.9623 13.1575 30.3672C13.1575 28.7721 11.9604 27.479 10.4838 27.479C9.00712 27.479 7.81006 28.7721 7.81006 30.3672C7.81006 31.9623 9.00712 33.2554 10.4838 33.2554Z" fill="#101828"/>
<path d="M11.2097 30.564C11.6906 30.564 12.0805 30.102 12.0805 29.5322C12.0805 28.9624 11.6906 28.5005 11.2097 28.5005C10.7287 28.5005 10.3389 28.9624 10.3389 29.5322C10.3389 30.102 10.7287 30.564 11.2097 30.564Z" fill="#FFFEFE"/>
<path d="M19.389 33.2554C20.8657 33.2554 22.0628 31.9623 22.0628 30.3672C22.0628 28.7721 20.8657 27.479 19.389 27.479C17.9124 27.479 16.7153 28.7721 16.7153 30.3672C16.7153 31.9623 17.9124 33.2554 19.389 33.2554Z" fill="#101828"/>
<path d="M20.1155 30.3682C20.5964 30.3682 20.9863 29.9062 20.9863 29.3364C20.9863 28.7666 20.5964 28.3047 20.1155 28.3047C19.6345 28.3047 19.2446 28.7666 19.2446 29.3364C19.2446 29.9062 19.6345 30.3682 20.1155 30.3682Z" fill="#FFFEFE"/>
<path fill-rule="evenodd" clip-rule="evenodd" d="M15.968 43.4182C17.5484 42.6991 19.3883 40.6681 19.3883 39.3618C19.3883 37.7522 16.5947 36.4473 14.9353 36.4473C13.276 36.4473 10.4824 37.7522 10.4824 39.3618C10.4824 40.6029 12.1432 42.4981 13.6643 43.301C13.541 43.7513 13.3903 44.1665 13.1601 44.5258C12.9687 44.8243 12.7342 45.059 12.4286 45.2241C12.1222 45.3896 11.6934 45.5125 11.0714 45.5125C10.1242 45.5125 9.44913 44.9666 8.96382 44.1956C8.72321 43.8133 8.5506 43.4041 8.4391 43.0494C8.32213 42.6773 8.29144 42.4273 8.29144 42.3651H6.51221C6.51221 42.6695 6.59619 43.1042 6.73724 43.5529C6.88375 44.0189 7.11251 44.5664 7.44528 45.0951C8.10671 46.1459 9.26641 47.2385 11.0714 47.2385C11.9427 47.2385 12.6798 47.0639 13.2941 46.7321C13.9092 46.3999 14.3502 45.9376 14.671 45.4372C14.716 45.367 14.7588 45.2956 14.7996 45.2232C14.8405 45.2956 14.8833 45.367 14.9283 45.4372C15.2491 45.9376 15.6901 46.3999 16.3052 46.7321C16.9195 47.0639 17.6566 47.2385 18.5279 47.2385C20.3329 47.2385 21.4926 46.1459 22.154 45.0951C22.4868 44.5664 22.7155 44.0189 22.862 43.5529C23.0031 43.1042 23.0871 42.6695 23.0871 42.3651H21.3078C21.3078 42.4273 21.2772 42.6773 21.1602 43.0494C21.0487 43.4041 20.8761 43.8133 20.6355 44.1956C20.1501 44.9666 19.4751 45.5125 18.5279 45.5125C17.9059 45.5125 17.4771 45.3896 17.1707 45.2241C16.865 45.059 16.6306 44.8243 16.4392 44.5258C16.2291 44.1979 16.0853 43.8234 15.968 43.4182Z" fill="#101828"/>
<path d="M82.2617 0.887695H84.4841V18.6415H82.2617V0.887695Z" fill="#FF7100"/>
<path d="M132.588 0.887695H134.81V16.6125H142V18.6415H132.588V0.887695Z" fill="#FF7100"/>
<path d="M115.249 13.3154L116.034 11.2863H124.139L124.923 13.3154H115.249ZM120.034 4.89498L116.949 11.9458L116.74 12.4023L114.02 18.6415H111.537L120.034 0L128.531 18.6415H126.047L123.38 12.5545L123.171 12.0472L120.034 4.89498Z" fill="#FF7100"/>
<path d="M93.0389 6.64499L91.6794 18.6415H89.457L91.6794 0L99 12.8588L106.321 0L108.543 18.6415H106.321L104.961 6.64499L99 16.9929L93.0389 6.64499Z" fill="#FF7100"/>
<path d="M74.0161 0.887689H76.2384V19.5292L62.3815 5.42759V18.6415H60.1592V0L74.0161 14.1016V0.887689Z" fill="#FF7100"/>
<path d="M43.197 13.3154L43.9813 11.2863H52.0863L52.8707 13.3154H43.197ZM47.9815 4.89498L44.8964 11.9458L44.6873 12.4023L41.9682 18.6415H39.4844L47.9815 0L56.4787 18.6415H53.9949L51.3281 12.5545L51.119 12.0472L47.9815 4.89498Z" fill="#FF7100"/>
<path d="M41.1497 40.7244L42.2208 37.9538H53.2883L54.3594 40.7244H41.1497ZM47.6832 29.2262L43.4703 38.8542L43.1847 39.4776L39.4717 47.9974H36.0801L47.6832 22.542L59.2862 47.9974H55.8946L52.253 39.6854L51.9674 38.9928L47.6832 29.2262Z" fill="#101828"/>
<path d="M68.4071 36.0472H71.7987L80.7242 47.9957H76.9755L68.4071 36.0472ZM63.9443 23.7524H66.979V47.9957H63.9443V23.7524ZM65.6223 26.3499V23.7524H70.7277C72.3462 23.7524 73.7861 24.0526 75.0476 24.6529C76.3328 25.2301 77.3444 26.0613 78.0822 27.1465C78.8439 28.2317 79.2247 29.5246 79.2247 31.0254C79.2247 32.5031 78.8439 33.7961 78.0822 34.9043C77.3444 35.9895 76.3328 36.8322 75.0476 37.4326C73.7861 38.0098 72.3462 38.2984 70.7277 38.2984H65.6223V35.7009H70.7277C71.7987 35.7009 72.7389 35.5162 73.5481 35.1468C74.3811 34.7773 75.0238 34.2463 75.476 33.5536C75.952 32.861 76.19 32.0182 76.19 31.0254C76.19 30.0326 75.952 29.1899 75.476 28.4972C75.0238 27.8045 74.3811 27.2735 73.5481 26.9041C72.7389 26.5346 71.7987 26.3499 70.7277 26.3499H65.6223Z" fill="#101828"/>
<path d="M85.3809 23.7524H88.4155V47.9957H85.3809V23.7524ZM98.2335 23.7524H101.982L91.1645 35.1121L102.518 47.9957H98.769L87.4873 35.1814L98.2335 23.7524Z" fill="#101828"/>
<path d="M108.853 47.9957V45.225H121.456V47.9957H108.853ZM108.853 26.5231V23.7524H121.456V26.5231H108.853ZM108.853 36.2204V33.4497H120.742V36.2204H108.853ZM107.175 23.7524H110.21V47.9957H107.175V23.7524Z" fill="#101828"/>
<path d="M126.113 26.5231V23.7524H142V26.5231H135.574V47.9957H132.539V26.5231H126.113Z" fill="#101828"/>
</svg>
