<svg width="87" height="29" viewBox="0 0 87 29" fill="none" xmlns="http://www.w3.org/2000/svg">
<path d="M3.45866 6.9541L2.12819 28.5551H0L2.06284 0.444824L9.13868 11.3651L16.0839 0.444824L18.2774 28.5551H16.1492L14.6923 6.9541L9.13868 15.1543L3.45866 6.9541Z" fill="#FFFEFE"/>
<path d="M6.41478 20.3572C7.31831 20.3572 8.05076 19.4956 8.05076 18.4328C8.05076 17.3699 7.31831 16.5083 6.41478 16.5083C5.51126 16.5083 4.77881 17.3699 4.77881 18.4328C4.77881 19.4956 5.51126 20.3572 6.41478 20.3572Z" fill="#FFFEFE"/>
<path d="M6.85925 18.5639C7.15353 18.5639 7.39209 18.2561 7.39209 17.8764C7.39209 17.4968 7.15353 17.189 6.85925 17.189C6.56497 17.189 6.32642 17.4968 6.32642 17.8764C6.32642 18.2561 6.56497 18.5639 6.85925 18.5639Z" fill="#101828"/>
<path d="M11.8638 20.3572C12.7673 20.3572 13.4997 19.4956 13.4997 18.4328C13.4997 17.3699 12.7673 16.5083 11.8638 16.5083C10.9602 16.5083 10.2278 17.3699 10.2278 18.4328C10.2278 19.4956 10.9602 20.3572 11.8638 20.3572Z" fill="#FFFEFE"/>
<path d="M12.308 18.4335C12.6023 18.4335 12.8408 18.1257 12.8408 17.7461C12.8408 17.3664 12.6023 17.0586 12.308 17.0586C12.0137 17.0586 11.7751 17.3664 11.7751 17.7461C11.7751 18.1257 12.0137 18.4335 12.308 18.4335Z" fill="#101828"/>
<path fill-rule="evenodd" clip-rule="evenodd" d="M9.77063 25.8715C10.7376 25.4503 11.8634 24.2609 11.8634 23.4959C11.8634 22.5532 10.1541 21.7891 9.13876 21.7891C8.12346 21.7891 6.41413 22.5532 6.41413 23.4959C6.41413 24.2227 7.4303 25.3326 8.36103 25.8028C8.28558 26.0665 8.19342 26.3097 8.05252 26.5201C7.93543 26.6949 7.79197 26.8324 7.60495 26.929C7.41746 27.026 7.15508 27.098 6.77453 27.098C6.19497 27.098 5.78189 26.7783 5.48494 26.3267C5.33772 26.1029 5.23211 25.8632 5.16388 25.6555C5.09231 25.4376 5.07353 25.2912 5.07353 25.2547H3.98486C3.98486 25.433 4.03625 25.6876 4.12256 25.9503C4.2122 26.2232 4.35217 26.5439 4.55579 26.8535C4.9605 27.4689 5.67009 28.1087 6.77453 28.1087C7.30762 28.1087 7.75867 28.0065 8.13455 27.8122C8.5109 27.6176 8.78073 27.3469 8.97701 27.0538C9.00454 27.0127 9.03075 26.9709 9.05574 26.9285C9.08072 26.9709 9.10694 27.0127 9.13447 27.0538C9.33074 27.3469 9.60058 27.6176 9.97693 27.8122C10.3528 28.0065 10.8039 28.1087 11.3369 28.1087C12.4414 28.1087 13.151 27.4689 13.5557 26.8535C13.7593 26.5439 13.8993 26.2232 13.9889 25.9503C14.0752 25.6876 14.1266 25.433 14.1266 25.2547H13.0379C13.0379 25.2912 13.0192 25.4376 12.9476 25.6555C12.8794 25.8632 12.7738 26.1029 12.6265 26.3267C12.3296 26.7783 11.9165 27.098 11.3369 27.098C10.9564 27.098 10.694 27.026 10.5065 26.929C10.3195 26.8324 10.176 26.6949 10.059 26.5201C9.93037 26.3281 9.84237 26.1088 9.77063 25.8715Z" fill="#FFFEFE"/>
<path d="M50.334 0.964355H51.6938V11.3615H50.334V0.964355Z" fill="#FF7100"/>
<path d="M81.127 0.964355H82.4867V10.1733H86.8861V11.3615H81.127V0.964355Z" fill="#FF7100"/>
<path d="M70.5182 8.24269L70.9982 7.05445H75.9574L76.4373 8.24269H70.5182ZM73.4458 3.31147L71.5581 7.44063L71.4301 7.70798L69.7663 11.3618H68.2466L73.4458 0.444824L78.645 11.3618H77.1252L75.4935 7.7971L75.3655 7.50004L73.4458 3.31147Z" fill="#FF7100"/>
<path d="M56.9282 4.33633L56.0964 11.3618H54.7366L56.0964 0.444824L60.5757 7.97534L65.055 0.444824L66.4148 11.3618H65.055L64.2231 4.33633L60.5757 10.3964L56.9282 4.33633Z" fill="#FF7100"/>
<path d="M45.2885 0.964682H46.6483V11.8817L38.1696 3.62338V11.3618H36.8098V0.444824L45.2885 8.70314V0.964682Z" fill="#FF7100"/>
<path d="M26.4313 8.24269L26.9112 7.05445H31.8705L32.3504 8.24269H26.4313ZM29.3589 3.31147L27.4712 7.44063L27.3432 7.70798L25.6794 11.3618H24.1597L29.3589 0.444824L34.5581 11.3618H33.0383L31.4066 7.7971L31.2786 7.50004L29.3589 3.31147Z" fill="#FF7100"/>
<path d="M25.1787 24.2942L25.834 22.6716H32.606L33.2613 24.2942H25.1787ZM29.1763 17.5605L26.5986 23.1989L26.4238 23.564L24.1519 28.5534H22.0767L29.1763 13.646L36.2759 28.5534H34.2007L31.9725 23.6857L31.7977 23.2801L29.1763 17.5605Z" fill="#FFFEFE"/>
<path d="M41.8566 21.5552H43.9319L49.3931 28.5525H47.0994L41.8566 21.5552ZM39.126 14.355H40.9828V28.5525H39.126V14.355ZM40.1527 15.8761V14.355H43.2765C44.2668 14.355 45.1479 14.5308 45.9198 14.8823C46.7062 15.2204 47.3251 15.7071 47.7766 16.3426C48.2426 16.9782 48.4756 17.7354 48.4756 18.6143C48.4756 19.4796 48.2426 20.2368 47.7766 20.8859C47.3251 21.5214 46.7062 22.0149 45.9198 22.3665C45.1479 22.7045 44.2668 22.8735 43.2765 22.8735H40.1527V21.3524H43.2765C43.9319 21.3524 44.5071 21.2442 45.0023 21.0278C45.512 20.8115 45.9052 20.5005 46.1819 20.0949C46.4732 19.6892 46.6188 19.1957 46.6188 18.6143C46.6188 18.0328 46.4732 17.5393 46.1819 17.1336C45.9052 16.728 45.512 16.417 45.0023 16.2007C44.5071 15.9843 43.9319 15.8761 43.2765 15.8761H40.1527Z" fill="#FFFEFE"/>
<path d="M52.2419 14.355H54.0988V28.5525H52.2419V14.355ZM60.1062 14.355H62.3999L55.7808 21.0076L62.7276 28.5525H60.4338L53.5308 21.0481L60.1062 14.355Z" fill="#FFFEFE"/>
<path d="M66.6046 28.5525V26.93H74.3159V28.5525H66.6046ZM66.6046 15.9776V14.355H74.3159V15.9776H66.6046ZM66.6046 21.6566V20.034H73.879V21.6566H66.6046ZM65.5779 14.355H67.4347V28.5525H65.5779V14.355Z" fill="#FFFEFE"/>
<path d="M77.165 15.9776V14.355H86.8861V15.9776H82.954V28.5525H81.0971V15.9776H77.165Z" fill="#FFFEFE"/>
</svg>
