<svg width="16" height="16" viewBox="0 0 16 16" fill="none" xmlns="http://www.w3.org/2000/svg">
<path d="M11.4688 8.46875C11.4062 8.3125 11.375 8.15365 11.375 7.99219C11.375 7.83073 11.4062 7.67708 11.4688 7.53125L11.9062 6.48438C11.9688 6.33854 12 6.1849 12 6.02344C12 5.86198 11.9688 5.70312 11.9062 5.54688C11.8438 5.40104 11.7552 5.27083 11.6406 5.15625C11.526 5.04167 11.3958 4.95312 11.25 4.89062L10.2031 4.45312C10.0469 4.39062 9.91146 4.30469 9.79688 4.19531C9.68229 4.08594 9.59375 3.95312 9.53125 3.79688L9.10938 2.75C9.04688 2.60417 8.95833 2.47396 8.84375 2.35938C8.72917 2.24479 8.59375 2.15625 8.4375 2.09375C8.29167 2.03125 8.13802 2 7.97656 2C7.8151 2 7.66146 2.03125 7.51562 2.09375L6.46875 2.53125C6.3125 2.59375 6.15365 2.625 5.99219 2.625C5.83073 2.625 5.67708 2.59375 5.53125 2.53125L4.48438 2.09375C4.33854 2.03125 4.1849 2 4.02344 2C3.86198 2 3.70312 2.03125 3.54688 2.09375C3.40104 2.15625 3.27083 2.24479 3.15625 2.35938C3.04167 2.47396 2.95312 2.60417 2.89062 2.75L2.45312 3.79688C2.39062 3.95312 2.30469 4.08594 2.19531 4.19531C2.08594 4.30469 1.95312 4.39062 1.79688 4.45312L0.75 4.89062C0.677083 4.92188 0.606771 4.96094 0.539062 5.00781C0.471354 5.05469 0.411458 5.10417 0.359375 5.15625C0.307292 5.21875 0.257812 5.28125 0.210938 5.34375C0.164062 5.40625 0.125 5.47396 0.09375 5.54688C0.0625 5.61979 0.0390625 5.69792 0.0234375 5.78125C0.0078125 5.86458 0 5.94271 0 6.01562C0 6.09896 0.0078125 6.17969 0.0234375 6.25781C0.0390625 6.33594 0.0625 6.41146 0.09375 6.48438L0.53125 7.53125C0.59375 7.67708 0.625 7.83073 0.625 7.99219C0.625 8.15365 0.59375 8.3125 0.53125 8.46875L0.09375 9.51562C0.03125 9.66146 0 9.8151 0 9.97656C0 10.138 0.03125 10.2917 0.09375 10.4375C0.15625 10.5938 0.244792 10.7292 0.359375 10.8438C0.473958 10.9583 0.604167 11.0469 0.75 11.1094L1.79688 11.5312C1.95312 11.5938 2.08594 11.6823 2.19531 11.7969C2.30469 11.9115 2.39062 12.0469 2.45312 12.2031L2.89062 13.25C2.95312 13.3958 3.04167 13.526 3.15625 13.6406C3.27083 13.7552 3.40104 13.8438 3.54688 13.9062C3.70312 13.9688 3.86198 14 4.02344 14C4.1849 14 4.33854 13.9688 4.48438 13.9062L5.53125 13.4688C5.67708 13.4062 5.83073 13.375 5.99219 13.375C6.15365 13.375 6.3125 13.4062 6.46875 13.4688L7.51562 13.9062C7.66146 13.9688 7.8151 14 7.97656 14C8.13802 14 8.29167 13.9688 8.4375 13.9062C8.59375 13.8438 8.72917 13.7552 8.84375 13.6406C8.95833 13.526 9.04688 13.3958 9.10938 13.25L9.53125 12.2031C9.59375 12.0469 9.68229 11.9115 9.79688 11.7969C9.91146 11.6823 10.0469 11.5938 10.2031 11.5312L11.25 11.1094C11.3229 11.0781 11.3906 11.0391 11.4531 10.9922C11.5156 10.9453 11.5781 10.8958 11.6406 10.8438C11.6927 10.7812 11.7422 10.7161 11.7891 10.6484C11.8359 10.5807 11.875 10.5104 11.9062 10.4375C11.9375 10.3646 11.9609 10.2891 11.9766 10.2109C11.9922 10.1328 12 10.0573 12 9.98438C12 9.90104 11.9922 9.82031 11.9766 9.74219C11.9609 9.66406 11.9375 9.58854 11.9062 9.51562L11.4688 8.46875ZM8.57812 6.96875L5.875 9.67188C5.8125 9.73438 5.73958 9.78125 5.65625 9.8125C5.57292 9.84375 5.48958 9.85938 5.40625 9.85938C5.3125 9.85938 5.22396 9.84375 5.14062 9.8125C5.05729 9.78125 4.98438 9.73438 4.92188 9.67188L3.71875 8.46875C3.59375 8.34375 3.53125 8.1901 3.53125 8.00781C3.53125 7.82552 3.59375 7.66667 3.71875 7.53125C3.85417 7.40625 4.01302 7.34375 4.19531 7.34375C4.3776 7.34375 4.53646 7.40625 4.67188 7.53125L5.39062 8.26562L7.625 6.03125C7.75 5.90625 7.90365 5.84375 8.08594 5.84375C8.26823 5.84375 8.42708 5.90625 8.5625 6.03125C8.6875 6.16667 8.75 6.32552 8.75 6.50781C8.75 6.6901 8.6875 6.84375 8.5625 6.96875H8.57812Z" fill="#0D71A8"/>
</svg>
