<svg width="45" height="44" viewBox="0 0 45 44" fill="none" xmlns="http://www.w3.org/2000/svg">
<path d="M38 16V6.97554C38 5.92116 37.5786 4.90996 36.8284 4.16441C36.0783 3.41885 35.0609 3 34 3C32.9391 3 31.9217 3.41885 31.1716 4.16441C30.4214 4.90996 30 5.92116 30 6.97554V12.9388" stroke="#2A907F" stroke-width="2" stroke-linecap="round" stroke-linejoin="round"/>
<path d="M34 43H18C15.8783 43 13.8434 42.1093 12.3431 40.5239C10.8429 38.9385 10 36.7882 10 34.5461C10 30.6224 11.475 26.8594 14.1005 24.085C16.726 21.3105 20.287 19.7518 24 19.7518H24.4L17.2 12.1433C16.8323 11.7548 16.5406 11.2935 16.3416 10.7858C16.1426 10.2781 16.0402 9.73397 16.0402 9.18446C16.0402 8.07467 16.4574 7.01034 17.2 6.2256C17.9426 5.44086 18.9498 5 20 5C20.52 5 21.0349 5.10823 21.5153 5.31852C21.9958 5.52881 22.4323 5.83704 22.8 6.2256L29.6 13.4114H30C36.6 13.4114 42 19.1178 42 26.0922V28.2057C42 29.3268 41.5786 30.4019 40.8284 31.1946C40.0783 31.9873 39.0609 32.4326 38 32.4326H36C32.6 32.4326 30 35.1802 30 38.7731" stroke="#2A907F" stroke-width="2" stroke-linecap="round" stroke-linejoin="round"/>
<path d="M13 23.3024C12.4488 22.2242 11.6304 21.3424 10.6412 20.7609C9.65191 20.1795 8.53296 19.9225 7.41603 20.0203C6.29911 20.1181 5.2307 20.5666 4.3366 21.3129C3.44249 22.0593 2.75989 23.0725 2.36916 24.2332C1.97843 25.394 1.89583 26.6539 2.13109 27.8648C2.36635 29.0757 2.90967 30.1871 3.69709 31.0681C4.48451 31.9492 5.48326 32.5632 6.57576 32.838C7.66826 33.1128 8.80904 33.0368 9.86381 32.6191" stroke="#2A907F" stroke-width="2" stroke-linecap="round" stroke-linejoin="round"/>
<path d="M24 31C25.1574 30.9985 26.2905 31.3326 27.2623 31.9621C28.2341 32.5915 29.0031 33.4893 29.4763 34.5469C29.9495 35.6046 30.1067 36.7768 29.9288 37.9219C29.751 39.0671 29.2457 40.1362 28.4741 41" stroke="#2A907F" stroke-width="2" stroke-linecap="round" stroke-linejoin="round"/>
<path d="M33.5 22H33.5183" stroke="#2A907F" stroke-width="2" stroke-linecap="round" stroke-linejoin="round"/>
</svg>
