<svg width="14" height="15" viewBox="0 0 14 15" fill="none" xmlns="http://www.w3.org/2000/svg">
<path d="M1 3.49992L3 0.833252H11L13 3.49992M1 3.49992V12.8333C1 13.1869 1.14048 13.526 1.39052 13.7761C1.64057 14.0261 1.97971 14.1666 2.33333 14.1666H11.6667C12.0203 14.1666 12.3594 14.0261 12.6095 13.7761C12.8595 13.526 13 13.1869 13 12.8333V3.49992M1 3.49992H13M9.66667 6.16659C9.66667 6.87383 9.38572 7.55211 8.88562 8.0522C8.38552 8.5523 7.70724 8.83325 7 8.83325C6.29276 8.83325 5.61448 8.5523 5.11438 8.0522C4.61428 7.55211 4.33333 6.87383 4.33333 6.16659" stroke="#757982" stroke-linecap="round" stroke-linejoin="round"/>
</svg>
